<svg width="22" height="20" viewBox="0 0 22 20" fill="none" xmlns="http://www.w3.org/2000/svg">
<g clip-path="url(#clip0_123_29443)">
<path opacity="0.4" d="M21.2061 13.6489C21.2061 16.5866 18.8313 18.9661 15.8734 18.9767H15.8628H5.35671C2.40948 18.9767 0.00292969 16.6076 0.00292969 13.6699V13.6594C0.00292969 13.6594 0.00929061 8.99915 0.0177718 6.65534C0.0188321 6.21521 0.527706 5.96883 0.874376 6.24258C3.3933 8.22735 7.8979 11.8463 7.95409 11.8937C8.7068 12.4927 9.66093 12.8308 10.6363 12.8308C11.6117 12.8308 12.5658 12.4927 13.3185 11.8821C13.3746 11.8452 17.7785 8.33475 20.3356 6.31735C20.6834 6.04253 21.1944 6.28891 21.1954 6.72798C21.2061 9.0539 21.2061 13.6489 21.2061 13.6489Z" fill="white"/>
<path d="M20.6494 2.83896C19.7314 1.12058 17.9248 0.0234375 15.936 0.0234375H5.35563C3.36678 0.0234375 1.56028 1.12058 0.642183 2.83896C0.436513 3.22328 0.534047 3.70236 0.876477 3.97401L8.74813 10.2274C9.2994 10.6696 9.96728 10.8896 10.6352 10.8896C10.6394 10.8896 10.6426 10.8896 10.6458 10.8896C10.649 10.8896 10.6532 10.8896 10.6564 10.8896C11.3243 10.8896 11.9922 10.6696 12.5435 10.2274L20.4151 3.97401C20.7575 3.70236 20.8551 3.22328 20.6494 2.83896Z" fill="white"/>
</g>
<defs>
<clipPath id="clip0_123_29443">
<rect width="22" height="19" fill="white" transform="translate(0.00292969 0.0234375)"/>
</clipPath>
</defs>
</svg>
