<svg width="47" height="36" viewBox="0 0 47 36" fill="none" xmlns="http://www.w3.org/2000/svg">
<g clip-path="url(#clip0_123_19841)">
<path d="M23.2339 24.1177C15.9132 24.1177 9.73633 25.3139 9.73633 29.9308C9.73633 34.5495 15.9531 35.7037 23.2339 35.7037C30.5546 35.7037 36.7315 34.5075 36.7315 29.8906C36.7315 25.2719 30.5147 24.1177 23.2339 24.1177Z" fill="white"/>
<path opacity="0.4" d="M23.2327 19.7191C28.1898 19.7191 32.1646 15.7214 32.1646 10.7358C32.1646 5.74822 28.1898 1.75244 23.2327 1.75244C18.2756 1.75244 14.3008 5.74822 14.3008 10.7358C14.3008 15.7214 18.2756 19.7191 23.2327 19.7191Z" fill="white"/>
<path opacity="0.4" d="M42.626 12.8277C43.9085 7.78278 40.1484 3.25195 35.3604 3.25195C34.8398 3.25195 34.342 3.30928 33.8556 3.40673C33.791 3.42202 33.7188 3.45451 33.6808 3.51184C33.6371 3.58445 33.6694 3.68191 33.7169 3.74497C35.1552 5.77439 35.9817 8.24523 35.9817 10.8976C35.9817 13.4392 35.2236 15.8087 33.8936 17.7751C33.7568 17.9777 33.8784 18.2509 34.1197 18.293C34.4541 18.3522 34.7961 18.3828 35.1457 18.3923C38.6322 18.4841 41.7615 16.2272 42.626 12.8277Z" fill="white"/>
<path d="M46.2782 24.7058C45.6398 23.3375 44.0989 22.3993 41.7562 21.9387C40.6504 21.6674 37.6579 21.2852 34.8744 21.3368C34.8326 21.3425 34.8098 21.3712 34.806 21.3903C34.8003 21.417 34.8117 21.4629 34.8668 21.4916C36.1531 22.1317 41.1254 24.916 40.5003 30.7883C40.4737 31.0424 40.677 31.2622 40.9297 31.224C42.1533 31.0482 45.3016 30.3679 46.2782 28.2486C46.8178 27.1288 46.8178 25.8275 46.2782 24.7058Z" fill="white"/>
<path opacity="0.4" d="M12.8274 3.40722C12.3429 3.30785 11.8432 3.25244 11.3226 3.25244C6.53465 3.25244 2.77455 7.78327 4.05895 12.8282C4.92155 16.2277 8.05085 18.4845 11.5373 18.3928C11.8869 18.3833 12.2308 18.3508 12.5633 18.2935C12.8046 18.2514 12.9262 17.9781 12.7894 17.7756C11.4594 15.8073 10.7013 13.4397 10.7013 10.8981C10.7013 8.2438 11.5297 5.77296 12.968 3.74546C13.0136 3.6824 13.0478 3.58494 13.0022 3.51232C12.9642 3.45308 12.8939 3.42251 12.8274 3.40722Z" fill="white"/>
<path d="M4.92623 21.9376C2.58353 22.3982 1.04453 23.3364 0.406125 24.7047C-0.135375 25.8264 -0.135375 27.1277 0.406125 28.2495C1.38273 30.3668 4.53103 31.049 5.75463 31.2229C6.00733 31.2611 6.20873 31.0433 6.18213 30.7872C5.55703 24.9168 10.5293 22.1326 11.8175 21.4924C11.8707 21.4618 11.8821 21.4179 11.8764 21.3892C11.8726 21.3701 11.8517 21.3414 11.8099 21.3376C9.02453 21.2841 6.03393 21.6663 4.92623 21.9376Z" fill="white"/>
</g>
<defs>
<clipPath id="clip0_123_19841">
<rect width="47" height="35" fill="white" transform="translate(0 0.984375)"/>
</clipPath>
</defs>
</svg>
