<svg width="46" height="47" viewBox="0 0 46 47" fill="none" xmlns="http://www.w3.org/2000/svg">
<g clip-path="url(#clip0_123_19865)">
<path opacity="0.4" d="M45.1309 23.7281C45.1309 36.0928 35.1079 46.1158 22.7432 46.1158C10.3784 46.1158 0.355469 36.0928 0.355469 23.7281C0.355469 11.3656 10.3784 1.34033 22.7432 1.34033C35.1079 1.34033 45.1309 11.3656 45.1309 23.7281Z" fill="white"/>
<path d="M31.3843 16.3512L27.7575 27.8137C27.6232 28.2838 27.2426 28.6644 26.7724 28.801L15.3547 32.3808C14.5935 32.6293 13.8547 31.8882 14.101 31.1271L17.683 19.6422C17.8174 19.172 18.1979 18.8138 18.6681 18.6571L30.1306 15.0751C30.9142 14.8288 31.6306 15.5676 31.3843 16.3512Z" fill="white"/>
</g>
<defs>
<clipPath id="clip0_123_19865">
<rect width="46" height="46" fill="white" transform="translate(0 0.984375)"/>
</clipPath>
</defs>
</svg>
