<svg width="45" height="46" viewBox="0 0 45 46" fill="none" xmlns="http://www.w3.org/2000/svg">
<g clip-path="url(#clip0_123_19874)">
<path d="M19.2601 39.8022C29.7084 39.8022 38.1784 31.279 38.1784 20.7651C38.1784 10.2512 29.7084 1.72803 19.2601 1.72803C8.81181 1.72803 0.341797 10.2512 0.341797 20.7651C0.341797 31.279 8.81181 39.8022 19.2601 39.8022Z" fill="white"/>
<path opacity="0.4" d="M41.4265 45.6295C40.6916 45.6057 39.9928 45.3034 39.4701 44.783L34.99 39.5463C34.0295 38.6679 33.9509 37.1751 34.8139 36.1995C35.2178 35.7908 35.767 35.561 36.3399 35.561C36.9127 35.561 37.4619 35.7908 37.8659 36.1995L43.5003 40.7078C44.3119 41.5385 44.5623 42.7717 44.1397 43.8562C43.717 44.9407 42.7003 45.6739 41.5439 45.728L41.4265 45.6295Z" fill="white"/>
</g>
<defs>
<clipPath id="clip0_123_19874">
<rect width="45" height="45" fill="white" transform="translate(0 0.984375)"/>
</clipPath>
</defs>
</svg>
