<svg width="24" height="32" viewBox="0 0 24 32" fill="none" xmlns="http://www.w3.org/2000/svg">
<g clip-path="url(#clip0_123_29140)">
<path d="M23.4969 12.7778C23.9864 9.43787 21.4922 7.64229 18.0814 6.44461L19.1891 1.92055L16.4873 1.23435L15.4081 5.63943C14.6987 5.45923 13.9696 5.28805 13.2449 5.12039L14.328 0.686199L11.6288 0L10.5243 4.52228L5.07628 3.14638L4.35749 6.08819C4.35749 6.08819 6.36174 6.55655 6.31941 6.58566C7.41331 6.86425 7.61171 7.60213 7.57824 8.18748L4.54704 20.5812C4.41312 20.92 4.07392 21.428 3.30934 21.2338C3.33642 21.2739 1.34597 20.7318 1.34597 20.7318L0.00488281 23.8889L5.44503 25.2895L4.32697 29.8662L7.02488 30.5524L8.13264 26.0248C8.8711 26.2286 9.58494 26.4169 10.2846 26.5941L9.18125 31.1006L11.8826 31.7868L13.0007 27.2188C17.6071 28.1073 21.071 27.7489 22.5271 23.5042C23.7017 20.0845 22.4695 18.1117 20.0458 16.8247C21.8108 16.408 23.14 15.2249 23.4947 12.7795L23.4969 12.7778ZM17.3233 21.6022C16.4863 25.0219 10.8406 23.1739 9.0087 22.7096L10.4921 16.647C12.323 17.1128 18.1942 18.0355 17.3243 21.6017L17.3233 21.6022ZM18.1612 12.7293C17.3996 15.8416 12.6987 14.2603 11.1729 13.8723L12.516 8.3722C14.0422 8.76072 18.9533 9.48405 18.1592 12.7291" fill="#010725"/>
</g>
<defs>
<clipPath id="clip0_123_29140">
<rect width="24" height="32" fill="white" transform="translate(0.00488281)"/>
</clipPath>
</defs>
</svg>
